<?xml version="1.0" encoding="UTF-8" standalone="no"?>
<svg
   version="1.0"
   width="64.000000pt"
   height="64.000000pt"
   viewBox="0 0 64.000000 64.000000"
   preserveAspectRatio="xMidYMid meet"
   id="svg4"
   sodipodi:docname="security-_1_.svg"
   inkscape:version="1.4 (e7c3feb100, 2024-10-09)"
   xmlns:inkscape="http://www.inkscape.org/namespaces/inkscape"
   xmlns:sodipodi="http://sodipodi.sourceforge.net/DTD/sodipodi-0.dtd"
   xmlns="http://www.w3.org/2000/svg"
   xmlns:svg="http://www.w3.org/2000/svg">
  <defs
     id="defs4" />
  <sodipodi:namedview
     id="namedview4"
     pagecolor="#ffffff"
     bordercolor="#000000"
     borderopacity="0.25"
     inkscape:showpageshadow="2"
     inkscape:pageopacity="0.0"
     inkscape:pagecheckerboard="0"
     inkscape:deskcolor="#d1d1d1"
     inkscape:document-units="pt"
     inkscape:zoom="7.0546875"
     inkscape:cx="42.595792"
     inkscape:cy="42.595792"
     inkscape:window-width="2560"
     inkscape:window-height="1043"
     inkscape:window-x="20"
     inkscape:window-y="20"
     inkscape:window-maximized="0"
     inkscape:current-layer="svg4" />
  <g
     transform="translate(0.000000,64.000000) scale(0.100000,-0.100000)"
     fill="#000000"
     stroke="none"
     id="g4"
     style="fill:#ffffff;fill-opacity:1">
    <path
       d="M165 600 l-130 -37 -3 -92 c-5 -166 29 -271 117 -364 28 -30 73 -66 101 -81 l50 -27 0 43 c-1 39 -4 45 -41 68 -53 32 -96 87 -125 158 -19 45 -24 76 -24 148 l0 91 91 26 c51 15 94 28 96 31 2 2 3 20 1 39 l-3 34 -130 -37z"
       id="path1"
       style="fill:#ffffff;fill-opacity:1" />
    <path
       d="M340 601 c0 -40 0 -40 58 -56 31 -9 74 -21 95 -27 l37 -11 0 -91 c0 -72 -5 -103 -24 -148 -29 -71 -72 -126 -125 -158 -37 -23 -40 -29 -41 -68 l0 -43 50 27 c28 15 73 51 101 81 88 93 122 198 117 364 l-3 93 -130 38 c-72 21 -131 38 -132 38 -2 0 -3 -18 -3 -39z"
       id="path2"
       style="fill:#ffffff;fill-opacity:1" />
    <path
       d="M218 498 l-68 -21 0 -38 c0 -22 1 -39 3 -39 2 0 40 11 86 24 88 26 90 26 230 -19 19 -6 21 -2 21 33 l0 39 -74 21 c-89 26 -111 26 -198 0z"
       id="path3"
       style="fill:#ffffff;fill-opacity:1" />
    <path
       d="M217 378 c-68 -21 -68 -21 -61 -52 16 -75 68 -147 136 -190 24 -16 29 -16 55 -3 59 32 121 119 137 194 7 31 7 31 -51 48 -86 26 -139 27 -216 3z"
       id="path4"
       style="fill:#ffffff;fill-opacity:1" />
  </g>
</svg>
